<?xml version="1.0" encoding="utf-8"?>
<!-- Svg Vector Icons : http://www.onlinewebfonts.com/icon -->
<!DOCTYPE svg PUBLIC "-//W3C//DTD SVG 1.1//EN" "http://www.w3.org/Graphics/SVG/1.1/DTD/svg11.dtd">
<svg version="1.1" xmlns="http://www.w3.org/2000/svg" xmlns:xlink="http://www.w3.org/1999/xlink" x="0px" y="0px" viewBox="0 0 1000 1000" enable-background="new 0 0 1000 1000" xml:space="preserve" style="fill: white;">
<metadata> Svg Vector Icons : http://www.onlinewebfonts.com/icon </metadata>
<g><path d="M990,190.5c0,28.5-23.1,51.6-51.6,51.6H61.6C33.1,242.1,10,219,10,190.5l0,0c0-28.5,23.1-51.6,51.6-51.6h876.8C966.9,138.9,990,162,990,190.5L990,190.5z"/><path d="M990,500c0,28.5-23.1,51.6-51.6,51.6H61.6C33.1,551.6,10,528.5,10,500l0,0c0-28.5,23.1-51.6,51.6-51.6h876.8C966.9,448.4,990,471.5,990,500L990,500z"/><path d="M990,809.5c0,28.5-23.1,51.6-51.6,51.6H61.6C33.1,861.1,10,838,10,809.5l0,0c0-28.5,23.1-51.6,51.6-51.6h876.8C966.9,757.9,990,781,990,809.5L990,809.5z"/></g>
</svg>