<?xml version="1.0" standalone="no"?>
<!DOCTYPE svg PUBLIC "-//W3C//DTD SVG 20010904//EN"
 "http://www.w3.org/TR/2001/REC-SVG-20010904/DTD/svg10.dtd">
<svg version="1.0" xmlns="http://www.w3.org/2000/svg"
 width="700.000000pt" height="700.000000pt" viewBox="0 0 700.000000 700.000000"
 preserveAspectRatio="xMidYMid meet">
<metadata>
Created by potrace 1.14, written by Peter Selinger 2001-2017
</metadata>
<g transform="translate(0.000000,700.000000) scale(0.100000,-0.100000)"
fill="#000000" stroke="none">
<path d="M935 6990 c-22 -5 -54 -11 -71 -14 -212 -39 -479 -200 -614 -372 -66
-84 -170 -254 -155 -254 3 0 -1 -10 -9 -22 -22 -35 -54 -144 -70 -238 -13 -74
-15 -417 -15 -2595 0 -2205 2 -2520 15 -2590 90 -471 448 -820 919 -894 37 -6
1034 -10 2570 -9 2694 0 2571 -2 2733 49 112 36 274 120 319 165 8 8 18 14 22
14 15 0 170 161 214 223 108 153 161 285 197 492 5 28 8 1185 7 2590 -3 2366
-4 2544 -20 2605 -10 36 -19 72 -21 81 -21 83 -105 247 -177 345 -42 57 -186
204 -200 204 -4 0 -14 6 -21 13 -48 46 -210 131 -308 162 -170 53 33 49 -2725
51 -1402 1 -2568 -2 -2590 -6z"/>
</g>
</svg>
