<?xml version="1.0" standalone="no"?>
<!DOCTYPE svg PUBLIC "-//W3C//DTD SVG 20010904//EN"
 "http://www.w3.org/TR/2001/REC-SVG-20010904/DTD/svg10.dtd">
<svg version="1.0" xmlns="http://www.w3.org/2000/svg"
 width="512.000000pt" height="512.000000pt" viewBox="0 0 512.000000 512.000000"
 preserveAspectRatio="xMidYMid meet">
<metadata>
Created by potrace 1.14, written by Peter Selinger 2001-2017
</metadata>
<g transform="translate(0.000000,512.000000) scale(0.100000,-0.100000)"
fill="#000000" stroke="none">
<path d="M209 5105 c-91 -33 -153 -94 -189 -184 -20 -51 -20 -67 -20 -2365 l0
-2314 22 -52 c27 -64 94 -134 156 -163 l47 -22 2335 0 2335 0 47 22 c64 29
132 102 157 166 20 52 20 71 18 2377 l-2 2325 -22 47 c-29 64 -102 132 -166
157 -51 20 -74 20 -2367 20 -1904 0 -2321 -3 -2351 -14z"/>
</g>
</svg>
